# xmcd
#
# Track frame offsets:
#	150
#	12655
#	22350
#	33061
#	43875
#	61943
#	79323
#	90444
#	100366
#	113715
#	124822
#	141229
#	152782
#	170979
#	197984
#	212009
#	233623
#	252634
#	261566
#	276399
#	284442
#	300706
#
# Disc length: 4473 seconds
#
# Revision: 0
# Processed by: cddbd v1.5.2PL0 Copyright (c) Steve Scherf et al.
# Submitted via: EasyCDDAExtractor 10.5.1.1
#
DISCID=55117716
DTITLE=Various Artist - Classic Country
DYEAR=1900
DGENRE=Country
TTITLE0=Waylon Jennings - I'm a Ramblin Man
TTITLE1=Merle Haggard - Mamma Tried
TTITLE2=Buck Owens - Act Naturally
TTITLE3=Conway Twitty - Hello Darling
TTITLE4=Johnny Cash - One Piece at a Time
TTITLE5=John Denver - Matthew
TTITLE6=George Jones - Hotter Than a Two Dollar Pistol
TTITLE7=Buck Owens - I've Got a Tiger By the Tail
TTITLE8=Jerry Jeff Walker - Navajo Rug
TTITLE9=Conway Twitty and Loretta Lynn - Louisiana Woman
TTITLE10=George Jones - He Stopped Loving Her Today
TTITLE11=Merle Haggard - Workin' Man Blues
TTITLE12=Johnny Cash - Sunday Morning Coming Down
TTITLE13=John Denver - Rocky Mountain High
TTITLE14=Emmylou Harris - Two More Bottles of Wine
TTITLE15=Willie Nelson - Good Morning America
TTITLE16=Merle Haggard - I Wished a Buck Was Still Silver
TTITLE17=Buck Owens - Love's Gonna Live Here
TTITLE18=John Denver - Take Me Home, Country Roads
TTITLE19=Johnny Cash - Five Feet High and Rising
TTITLE20=Don Williams - Love is On a Roll
TTITLE21=Jerry Jeff Walker - I Wanna Go Home With the Armadillo
EXTD=
EXTT0=
EXTT1=
EXTT2=
EXTT3=
EXTT4=
EXTT5=
EXTT6=
EXTT7=
EXTT8=
EXTT9=
EXTT10=
EXTT11=
EXTT12=
EXTT13=
EXTT14=
EXTT15=
EXTT16=
EXTT17=
EXTT18=
EXTT19=
EXTT20=
EXTT21=
PLAYORDER=
